<svg xmlns="http://www.w3.org/2000/svg" viewBox="0 0 894 178.48"><defs><style>.cls-1{font-size:17.09px;fill:#f4d495;font-family:CyGroteskGrand-Bold, Cy Grotesk Grand;font-weight:700;letter-spacing:0.04em;}.cls-2{letter-spacing:0.08em;}.cls-3{fill:#72a09e;}.cls-4{fill:#e47325;}.cls-5{fill:#fbb476;}</style></defs><g id="Layer_2" data-name="Layer 2"><g id="Layer_1-2" data-name="Layer 1"><text class="cls-1" transform="translate(615.53 117.33)">B<tspan class="cls-2" x="16.56" y="0">Y</tspan></text><path class="cls-3" d="M734.67,177.3l-6.55-18.44a1.44,1.44,0,0,1,0-.46l8.22-14.28a2.23,2.23,0,0,1,1.33-1.26l6.12-1.25a1.32,1.32,0,0,1,1.65,1.42l-.9,8.74a1.31,1.31,0,0,1-1,1.14l-4.22,2a1.34,1.34,0,0,0-.93,1.63l5.31,20.11a1.33,1.33,0,0,1-1.28,1.68H736A1.33,1.33,0,0,1,734.67,177.3Z"/><path class="cls-3" d="M751,177.28l-4-14.54a1.11,1.11,0,0,1,0-.48l2.05-20.87a1.35,1.35,0,0,1,1-1.17l19-5.46a1.34,1.34,0,0,1,1.66.89l2.8,8.91a1.27,1.27,0,0,1,0,.84l-4.43,13a1.33,1.33,0,0,1-.94.87l-10.29,2.6a1.36,1.36,0,0,0-.93,1.79l1.64,4.39a1.35,1.35,0,0,0,1.23.87l7.9.21a1.35,1.35,0,0,1,1.3,1.11l1.15,6.46a1.35,1.35,0,0,1-1.33,1.59H752.33A1.35,1.35,0,0,1,751,177.28Zm4-26.12.33,3.27a1.35,1.35,0,0,0,1.66,1.18l7.1-1.72a1.34,1.34,0,0,0,1-1.13l.64-4.46a1.35,1.35,0,0,0-1.8-1.46l-8.06,2.91A1.35,1.35,0,0,0,755,151.16Z"/><path class="cls-3" d="M774,176.8l-1.81-12.62a1.62,1.62,0,0,1,.12-.92l3.8-8.91a1.72,1.72,0,0,1,1.58-1l7.64,0a1.72,1.72,0,0,0,1.71-1.61l.52-7.76a1.71,1.71,0,0,0-.83-1.6l-2.36-1.41a1.73,1.73,0,0,0-1.42-.15l-4.3,1.43a1.71,1.71,0,0,1-2.2-1.19l-1.58-5.93a1.72,1.72,0,0,1,1.23-2.1l9.93-2.61a1.77,1.77,0,0,1,1.2.12l7.17,3.57a1.7,1.7,0,0,1,1,1.56l-.72,41a1.73,1.73,0,0,1-1.72,1.69H775.65A1.71,1.71,0,0,1,774,176.8Zm5.83-14.26.44,5.49a1.72,1.72,0,0,0,1.64,1.58l3.81.16a1.72,1.72,0,0,0,1.79-1.69l.07-6a1.72,1.72,0,0,0-1.87-1.74l-4.32.39A1.71,1.71,0,0,0,779.78,162.54Z"/><path class="cls-3" d="M875.86,176.51v-5.24a1.21,1.21,0,0,1,1.35-1.21l8.32.95a1.21,1.21,0,0,0,1.35-1.27l-.14-2.77a1.19,1.19,0,0,0-.9-1.11l-11.17-3a1.23,1.23,0,0,1-.87-1.46l3.44-14.46a1.22,1.22,0,0,1,1.46-.9l13.66,3.15a1.22,1.22,0,0,1,.94,1.19v4.7a1.21,1.21,0,0,1-1.49,1.19l-9.18-2.14a1.22,1.22,0,0,0-1.47.94l-.38,1.81a1.22,1.22,0,0,0,.88,1.43L892,161a1.22,1.22,0,0,1,.91,1.15l.39,14.82a1.22,1.22,0,0,1-1.26,1.25l-15-.49A1.21,1.21,0,0,1,875.86,176.51Z"/><path class="cls-3" d="M851,177.61l-2.59-5.51a1.09,1.09,0,0,1-.1-.64l2.27-17.66a1.6,1.6,0,0,1,0-.21l4.17-12.8a1.15,1.15,0,0,1,1.4-.76l16.24,4.5a1.15,1.15,0,0,1,.82,1.37l-3.54,15.75c-.11.48-1.45.54-2,.59l-9.38-1.94a1.16,1.16,0,0,0-1,1.15l.06,7.72a1.16,1.16,0,0,0,1.21,1.15l10.06-.42a1.16,1.16,0,0,1,1.2,1.23l-.4,6.06a1.16,1.16,0,0,1-1.15,1.09H852.07A1.14,1.14,0,0,1,851,177.61Zm8-22.77h5.5a1.17,1.17,0,0,0,1.14-1l.63-3.72c.09-.56-1.82-1.1-2.35-1.29l-3.35-1.17a1.16,1.16,0,0,0-1.51.81l-1.19,4.9A1.16,1.16,0,0,0,859.06,154.84Z"/><path class="cls-3" d="M834.59,177.6l-6.73-43.21a.8.8,0,0,1,1-.89l6.76,2a.79.79,0,0,1,.56.69l1.55,17.32a.79.79,0,0,0,.77.73h0a.8.8,0,0,0,.81-.68l2.45-15.83a.8.8,0,0,1,1-.66l5.81,1.24.08,0,.68.23a.8.8,0,0,1,.53,1l-3.19,12.61a.5.5,0,0,0,0,.12l-2.53,25.28a.8.8,0,0,1-.8.72h-7.91A.8.8,0,0,1,834.59,177.6Z"/><path class="cls-3" d="M800.19,177.15l-.75-43.83a1.12,1.12,0,0,1,.65-1l7.07-3.05a1.14,1.14,0,0,1,1.63,1V140a1.15,1.15,0,0,0,1.11,1.14l13,.43a1.14,1.14,0,0,1,1.09,1l.73,4.78a1.13,1.13,0,0,1-1.12,1.31l-13.39.11a1.14,1.14,0,0,0-1.13,1.15l.13,18.23a1.15,1.15,0,0,0,1.13,1.13l1.84,0a1.14,1.14,0,0,1,1.13,1.09l.33,6.74a1.14,1.14,0,0,1-1.14,1.2h-11.2A1.14,1.14,0,0,1,800.19,177.15Z"/><path class="cls-3" d="M818.77,176.71l-2.14-22.64a1.73,1.73,0,0,1,1.82-1.88l6.24.34a1.72,1.72,0,0,1,1.62,1.49l3,22.3a1.73,1.73,0,0,1-1.71,2h-7.14A1.73,1.73,0,0,1,818.77,176.71Z"/><path class="cls-3" d="M813.86,128.43a.63.63,0,0,1,.82-.66h0l7.62,2.74a.62.62,0,0,1,.41.49l.85,5.26a.62.62,0,0,1-.63.72l-7.65-.23a.61.61,0,0,1-.59-.55Z"/><path class="cls-4" d="M751.38,45.14l-6.69,20.61a5.9,5.9,0,0,1-6,4.27l-23.65-1.24-5.68-.33a5.89,5.89,0,0,1-5.55-5.89V35a5.88,5.88,0,0,1,3.89-5.54l3.79-1.38a5.9,5.9,0,0,1,7.9,5.45l.26,15.58a5.9,5.9,0,0,0,6.09,5.8h0c4-.13,6.72-1.29,5.35-5.06L728.27,42a5.92,5.92,0,0,1,.27-4.65l5.92-5c1.07-2.13.75-7.54-.82-9.35l-3-3.41a5.89,5.89,0,0,0-5.86-1.86L711.1,21.09a5.91,5.91,0,0,1-7.31-5.74l0-9.46A5.9,5.9,0,0,1,709.71,0h27.57a5.88,5.88,0,0,1,5.59,4l6,18a5.89,5.89,0,0,1-.54,4.91l-2.71,7.34c-1.25,2.07-1.11-2.05.35-.12L750.4,40A5.92,5.92,0,0,1,751.38,45.14Z"/><path class="cls-4" d="M793.22,0H759.74a4,4,0,0,0-3.5,2.12l-2.81,5.41a3.91,3.91,0,0,0-.33,2.75l6.13,18.38a3.78,3.78,0,0,1,0,1.77l-8,36.76A3.94,3.94,0,0,0,754.76,72l6.48.54,19.14,1.6a3.92,3.92,0,0,0,2.83-.88l7.6-6.25a3.93,3.93,0,0,0,1.41-2.61l.4-3.57,3.21-28.67a2.83,2.83,0,0,0,0-.29l1.31-27.74A3.94,3.94,0,0,0,793.22,0ZM781.64,18.05l-2.58,33.1a3.91,3.91,0,0,1-3.65,3.67l-1.66.12a3.93,3.93,0,0,1-4.19-4.34l3.92-30.7a3.63,3.63,0,0,0-.07-1.27,3.81,3.81,0,0,1-.1-.87,3.93,3.93,0,0,1,4.18-3.92l.46,0A3.93,3.93,0,0,1,781.64,18.05Z"/><path class="cls-4" d="M837.79,15.43l-7.45-13.3A4.2,4.2,0,0,0,826.69,0h-20.2a4.19,4.19,0,0,0-4.18,4.12l-.63,38.26a4.18,4.18,0,0,0,3.68,4.21l25.15,3a4.19,4.19,0,0,0,4.67-3.77l3.12-28A4.17,4.17,0,0,0,837.79,15.43ZM823.45,31a4.18,4.18,0,0,1-8.34.36l-1.7-13.14a4.17,4.17,0,0,1,4.16-4.53h1.7a4.18,4.18,0,0,1,4.18,4.17Z"/><path class="cls-4" d="M894,2.59V57.84a2.59,2.59,0,0,1-3.44,2.45l-10-3.45a2.64,2.64,0,0,1-1.23-.9L862.92,34a2.59,2.59,0,0,0-4.63,1.09l-5.85,32.22a2.59,2.59,0,0,1-2.8,2.12L824.31,67l-22.12-2.16A2.58,2.58,0,0,1,799.86,62l.11-1.33.35-4.22A2.59,2.59,0,0,1,803,54.07l34.64.81a2.59,2.59,0,0,0,2.65-2.47l2.82-49.95A2.59,2.59,0,0,1,845.66,0h15.6a2.6,2.6,0,0,1,2.58,2.87l-1.28,11.76a2.61,2.61,0,0,0,.48,1.81l9,12.4a2.59,2.59,0,0,0,4.68-1.73L874.82,2.8A2.6,2.6,0,0,1,877.41,0h14A2.59,2.59,0,0,1,894,2.59Z"/><path class="cls-4" d="M784.34,79.12l-30.26-.41h-.31a1.55,1.55,0,0,0-1.56,1.8l0,.17,1.71,11a2,2,0,0,1,0,.34l-2.3,36a1.56,1.56,0,0,0,2.05,1.59l6-2,16.47-5.45,7.2-2.38a1.57,1.57,0,0,0,1.07-1.42L785,104l.73-19.13.15-4.15A1.55,1.55,0,0,0,784.34,79.12Zm-8.67,11.93v18a1.57,1.57,0,0,1-1.11,1.5l-6.32,1.88a1.55,1.55,0,0,1-2-1.62l1-12.75c0-.1,0-.2,0-.3a1.31,1.31,0,0,0-.09-.38l-1.9-5.12a1.56,1.56,0,0,1,1.32-2.1l7.38-.64a1.59,1.59,0,0,1,1.35.57A1.55,1.55,0,0,1,775.67,91.05Z"/><path class="cls-4" d="M827.63,119a3.7,3.7,0,0,1-4.93,3.68l-4.28-1.52-8.1-2.86a3.74,3.74,0,0,0-2.93.2l-12,6.2a3.73,3.73,0,0,1-3.86-.29l-1.35-1a3.73,3.73,0,0,1-1.55-3.21l1-18.67.91-17.84.26-5.18A3.68,3.68,0,0,1,791.87,76l5.44-5.2a3.74,3.74,0,0,1,3-1l20.06,2.28a3.7,3.7,0,0,1,3.27,3.33l.48,5a3.72,3.72,0,0,1-3.51,4.06L809.33,85l-1.75.08a3.72,3.72,0,0,0-3.53,3.59l-.34,11.42a3.17,3.17,0,0,0,.1,1,3.71,3.71,0,0,0,4.64,2.69l.57-.16,3.63-1.06a3.7,3.7,0,0,1,2.82.3l9.85,5.39a3.7,3.7,0,0,1,1.93,3.06Z"/><path class="cls-4" d="M857.06,99a2,2,0,0,0,0,1.92l7,12.39a2,2,0,0,1-2.24,2.89l-4.25-1.14L851,113.29a2,2,0,0,1-1.27-1.05l-1.29-2.69a2,2,0,0,0-3.76.94l.86,18.48a2,2,0,0,1-2.67,1.95l-8-2.95-1.63-.6a2,2,0,0,1-1.28-1.7l-1.89-24L829.25,92l-1.33-16.4A2,2,0,0,1,830,73.48l5,.29,8.85.52a2,2,0,0,1,1.86,2l-.15,8.27-.08,4.51a2,2,0,0,0,2.87,1.8l1-.52.07,0a2,2,0,0,0,.94-1.16l11-36.24a2,2,0,0,1,3.36-.76l10.1,11.13a2,2,0,0,1,.28,2.27Z"/><path class="cls-4" d="M880.39,94.43l-2.67,2.72L894,123.53v18.52a2.49,2.49,0,0,1-3.22,2.37l-34.19-10.64-3.92-1.22a2.48,2.48,0,0,1-1.74-2.17l-.75-9.22a2.48,2.48,0,0,1,3.41-2.5l4.31,1.75,17,6.91a2.48,2.48,0,0,0,3.13-3.47l-12.74-23.64a2.5,2.5,0,0,1,0-2.29l14.72-29.69A2.49,2.49,0,0,1,883,67l9.35,3.49A2.46,2.46,0,0,1,894,72.82V98.29a2.49,2.49,0,0,1-1.71,2.36l-3.68,1.21a2.49,2.49,0,0,1-3.22-1.91l-.78-4.24A2.48,2.48,0,0,0,880.39,94.43Z"/><path class="cls-4" d="M749.72,93.2l-1.5,28.41a3.27,3.27,0,0,1-.6,1.7l-8.15,11.4a3.21,3.21,0,0,1-1.81,1.25l-29.79,7.76a3.23,3.23,0,0,1-4-3.12V103.26a3.23,3.23,0,0,1,3-3.22l10.55-.83a3.23,3.23,0,0,1,3.48,3.39l-1,17.54a3.22,3.22,0,0,0,4.24,3.23l5.66-1.89a3.21,3.21,0,0,0,2.17-2.55l2.75-17.4A3.21,3.21,0,0,0,733,98.15l-9.49-4.81A3.33,3.33,0,0,0,722,93h-15a3.23,3.23,0,0,1-3.23-3.23V76.08a3.23,3.23,0,0,1,3.6-3.21l33.54,4a3.24,3.24,0,0,1,2.56,1.86L747.28,87l2.16,4.73A3.28,3.28,0,0,1,749.72,93.2Z"/><path class="cls-5" d="M751.38,45.14l-6.69,20.61a5.9,5.9,0,0,1-6,4.27l-23.65-1.24-5.68-.33a5.89,5.89,0,0,1-5.55-5.89V35a5.88,5.88,0,0,1,3.89-5.54l3.79-1.38a5.9,5.9,0,0,1,7.9,5.45l.26,15.58a5.9,5.9,0,0,0,6.09,5.8h0c4-.13,6.72-1.29,5.35-5.06L728.27,42a5.92,5.92,0,0,1,.27-4.65l5.92-5c1.07-2.13.75-7.54-.82-9.35l-3-3.41a5.89,5.89,0,0,0-5.86-1.86L711.1,21.09a5.91,5.91,0,0,1-7.31-5.74l0-9.46A5.9,5.9,0,0,1,709.71,0h27.57a5.88,5.88,0,0,1,5.59,4l6,18a5.89,5.89,0,0,1-.54,4.91l-2.71,7.34c-1.25,2.07-1.11-2.05.35-.12L750.4,40A5.92,5.92,0,0,1,751.38,45.14Z"/><path class="cls-5" d="M793.22,0H759.74a4,4,0,0,0-3.5,2.12l-2.81,5.41a3.91,3.91,0,0,0-.33,2.75l6.13,18.38a3.78,3.78,0,0,1,0,1.77l-8,36.76A3.94,3.94,0,0,0,754.76,72l6.48.54,19.14,1.6a3.92,3.92,0,0,0,2.83-.88l7.6-6.25a3.93,3.93,0,0,0,1.41-2.61l.4-3.57,3.21-28.67a2.83,2.83,0,0,0,0-.29l1.31-27.74A3.94,3.94,0,0,0,793.22,0ZM781.64,18.05l-2.58,33.1a3.91,3.91,0,0,1-3.65,3.67l-1.66.12a3.93,3.93,0,0,1-4.19-4.34l3.92-30.7a3.63,3.63,0,0,0-.07-1.27,3.81,3.81,0,0,1-.1-.87,3.93,3.93,0,0,1,4.18-3.92l.46,0A3.93,3.93,0,0,1,781.64,18.05Z"/><path class="cls-5" d="M837.79,15.43l-7.45-13.3A4.2,4.2,0,0,0,826.69,0h-20.2a4.19,4.19,0,0,0-4.18,4.12l-.63,38.26a4.18,4.18,0,0,0,3.68,4.21l25.15,3a4.19,4.19,0,0,0,4.67-3.77l3.12-28A4.17,4.17,0,0,0,837.79,15.43ZM823.45,31a4.18,4.18,0,0,1-8.34.36l-1.7-13.14a4.17,4.17,0,0,1,4.16-4.53h1.7a4.18,4.18,0,0,1,4.18,4.17Z"/><path class="cls-5" d="M894,2.59V57.84a2.59,2.59,0,0,1-3.44,2.45l-10-3.45a2.64,2.64,0,0,1-1.23-.9L862.92,34a2.59,2.59,0,0,0-4.63,1.09l-5.85,32.22a2.59,2.59,0,0,1-2.8,2.12L824.31,67l-22.12-2.16A2.58,2.58,0,0,1,799.86,62l.11-1.33.35-4.22A2.59,2.59,0,0,1,803,54.07l34.64.81a2.59,2.59,0,0,0,2.65-2.47l2.82-49.95A2.59,2.59,0,0,1,845.66,0h15.6a2.6,2.6,0,0,1,2.58,2.87l-1.28,11.76a2.61,2.61,0,0,0,.48,1.81l9,12.4a2.59,2.59,0,0,0,4.68-1.73L874.82,2.8A2.6,2.6,0,0,1,877.41,0h14A2.59,2.59,0,0,1,894,2.59Z"/><path class="cls-5" d="M784.34,79.12l-30.26-.41h-.31a1.55,1.55,0,0,0-1.56,1.8l0,.17,1.71,11a2,2,0,0,1,0,.34l-2.3,36a1.56,1.56,0,0,0,2.05,1.59l6-2,16.47-5.45,7.2-2.38a1.57,1.57,0,0,0,1.07-1.42L785,104l.73-19.13.15-4.15A1.55,1.55,0,0,0,784.34,79.12Zm-8.67,11.93v18a1.57,1.57,0,0,1-1.11,1.5l-6.32,1.88a1.55,1.55,0,0,1-2-1.62l1-12.75c0-.1,0-.2,0-.3a1.31,1.31,0,0,0-.09-.38l-1.9-5.12a1.56,1.56,0,0,1,1.32-2.1l7.38-.64a1.59,1.59,0,0,1,1.35.57A1.55,1.55,0,0,1,775.67,91.05Z"/><path class="cls-5" d="M827.63,119a3.7,3.7,0,0,1-4.93,3.68l-4.28-1.52-8.1-2.86a3.74,3.74,0,0,0-2.93.2l-12,6.2a3.73,3.73,0,0,1-3.86-.29l-1.35-1a3.73,3.73,0,0,1-1.55-3.21l1-18.67.91-17.84.26-5.18A3.68,3.68,0,0,1,791.87,76l5.44-5.2a3.74,3.74,0,0,1,3-1l20.06,2.28a3.7,3.7,0,0,1,3.27,3.33l.48,5a3.72,3.72,0,0,1-3.51,4.06L809.33,85l-1.75.08a3.72,3.72,0,0,0-3.53,3.59l-.34,11.42a3.17,3.17,0,0,0,.1,1,3.71,3.71,0,0,0,4.64,2.69l.57-.16,3.63-1.06a3.7,3.7,0,0,1,2.82.3l9.85,5.39a3.7,3.7,0,0,1,1.93,3.06Z"/><path class="cls-5" d="M857.06,99a2,2,0,0,0,0,1.92l7,12.39a2,2,0,0,1-2.24,2.89l-4.25-1.14L851,113.29a2,2,0,0,1-1.27-1.05l-1.29-2.69a2,2,0,0,0-3.76.94l.86,18.48a2,2,0,0,1-2.67,1.95l-8-2.95-1.63-.6a2,2,0,0,1-1.28-1.7l-1.89-24L829.25,92l-1.33-16.4A2,2,0,0,1,830,73.48l5,.29,8.85.52a2,2,0,0,1,1.86,2l-.15,8.27-.08,4.51a2,2,0,0,0,2.87,1.8l1-.52.07,0a2,2,0,0,0,.94-1.16l11-36.24a2,2,0,0,1,3.36-.76l10.1,11.13a2,2,0,0,1,.28,2.27Z"/><path class="cls-5" d="M880.39,94.43l-2.67,2.72L894,123.53v18.52a2.49,2.49,0,0,1-3.22,2.37l-34.19-10.64-3.92-1.22a2.48,2.48,0,0,1-1.74-2.17l-.75-9.22a2.48,2.48,0,0,1,3.41-2.5l4.31,1.75,17,6.91a2.48,2.48,0,0,0,3.13-3.47l-12.74-23.64a2.5,2.5,0,0,1,0-2.29l14.72-29.69A2.49,2.49,0,0,1,883,67l9.35,3.49A2.46,2.46,0,0,1,894,72.82V98.29a2.49,2.49,0,0,1-1.71,2.36l-3.68,1.21a2.49,2.49,0,0,1-3.22-1.91l-.78-4.24A2.48,2.48,0,0,0,880.39,94.43Z"/><path class="cls-5" d="M749.72,93.2l-1.5,28.41a3.27,3.27,0,0,1-.6,1.7l-8.15,11.4a3.21,3.21,0,0,1-1.81,1.25l-29.79,7.76a3.23,3.23,0,0,1-4-3.12V103.26a3.23,3.23,0,0,1,3-3.22l10.55-.83a3.23,3.23,0,0,1,3.48,3.39l-1,17.54a3.22,3.22,0,0,0,4.24,3.23l5.66-1.89a3.21,3.21,0,0,0,2.17-2.55l2.75-17.4A3.21,3.21,0,0,0,733,98.15l-9.49-4.81A3.33,3.33,0,0,0,722,93h-15a3.23,3.23,0,0,1-3.23-3.23V76.08a3.23,3.23,0,0,1,3.6-3.21l33.54,4a3.24,3.24,0,0,1,2.56,1.86L747.28,87l2.16,4.73A3.28,3.28,0,0,1,749.72,93.2Z"/><path class="cls-3" d="M722,162.68a1.42,1.42,0,0,0,0,1.37l5.9,10.88c.61,1.09-.28,3.46-1.49,3.13l-7,0a1.41,1.41,0,0,1-.91-.76l-2.91-8.59c-.67-1.39-3.47-.86-3.4.68l-.47,7.64a1.42,1.42,0,0,1-1.9,1.4h-3.28l-1.17-.43a1.4,1.4,0,0,1-.92-1.22V152.21a1.81,1.81,0,0,1,1.35-1.74l4.86-1.25A1.79,1.79,0,0,1,713,151l-.06,3.33-.06,3.24c0,1.06,1.81,1.77,2.77,1.29l.73-.38,0,0a1.45,1.45,0,0,0,.67-.83l3.25-9.88a2.06,2.06,0,0,1,1.46-1.36l7.09-1.83a1.55,1.55,0,0,1,1.74,2.23Z"/><path class="cls-3" d="M620.45,47.4H556.31V70.55c-4.38-15-20.22-26-47.69-26-24.83,0-40.15,9.11-46,22.06C461.13,54.44,452.23,47.4,432,47.4H367.88V98.27h-56.5V88.68h45.95v-15H311.38V64.59h50.68v-17h-81L258.22,89.24,235.53,47.57H205V76L190.31,47.57H168.68L136,111.16l-7.31-18.25c15.09-2.41,21.15-10.31,21.15-22.27,0-14.51-8.88-23.07-32-23.07H0v67.91H21.14V91.85h39.6V74.55H21.14V64.87h49v50.61H91V93.71h16.73l8.78,21.77h39.73l2.59-5.42,20.67-44.63,11.44,24.41H177.52l-6.32,16.85h27.63l4.12,8.79h22.93v-47l26.13,47h11.46l26.32-46.75v46.75h97.75v-.34h.38V93.43H432c14.94,0,23.69-3.85,27.84-10.75v.79c0,19.43,16.22,35.07,48.76,35.07,27.47,0,43.31-11,47.69-26.05v22.65h20.05V93.43h44.09c22.27,0,30.81-8.54,30.81-23S642.72,47.4,620.45,47.4ZM117.34,77.06H91V64.22h26.35c9.08,0,11.49,2.42,11.49,6.42S126.42,77.06,117.34,77.06Zm314.21-.24H387.92V64h43.63c8.73,0,11.05,2.42,11.05,6.41S440.28,76.82,431.55,76.82Zm108.07,9.75a18.26,18.26,0,0,1-.62,4.75l-.12.42a1.54,1.54,0,0,1-3,0l-.11-.42c-1.58-5.9-6.74-10.08-14.63-12.11a18.86,18.86,0,0,1-24-.21c-8.41,1.94-13.92,6.19-15.56,12.32l-.11.42a1.54,1.54,0,0,1-3,0l-.12-.42a18.26,18.26,0,0,1-.62-4.75v-3c0-6.39,3.31-13,11.61-17a1.73,1.73,0,0,0,1-1.56v0A19.16,19.16,0,0,1,507.6,45.69,18.89,18.89,0,0,1,528.2,64.5v0a3.54,3.54,0,0,0,1.76,3c6.88,4,9.66,10.14,9.66,16ZM620,76.82H576.36V64H620c8.72,0,11,2.42,11,6.41S628.71,76.82,620,76.82Z"/><path class="cls-3" d="M509.25,49.57c-7.39,0-13.39,6.35-13.39,14.19s6,14.18,13.39,14.18,13.4-6.35,13.4-14.18S516.65,49.57,509.25,49.57Z"/></g></g></svg>